<?xml version="1.0" standalone="no"?>
<!DOCTYPE svg PUBLIC "-//W3C//DTD SVG 20010904//EN"
 "http://www.w3.org/TR/2001/REC-SVG-20010904/DTD/svg10.dtd">
<svg version="1.0" xmlns="http://www.w3.org/2000/svg"
 width="260.000000pt" height="260.000000pt" viewBox="0 0 260.000000 260.000000"
 preserveAspectRatio="xMidYMid meet">
<metadata>
Created by potrace 1.14, written by Peter Selinger 2001-2017
</metadata>
<g transform="translate(0.000000,260.000000) scale(0.100000,-0.100000)"
fill="#000000" stroke="none">
<path d="M1170 2594 c-14 -2 -56 -9 -95 -15 -157 -25 -356 -106 -510 -207 -91
-60 -277 -247 -339 -341 -101 -152 -168 -313 -203 -489 -24 -120 -24 -376 1
-490 36 -171 107 -339 204 -487 59 -91 247 -277 341 -339 235 -156 452 -221
736 -220 175 0 260 13 410 64 197 67 347 161 500 314 194 195 302 395 361 667
25 117 26 380 0 497 -26 122 -67 237 -127 353 -178 346 -515 598 -901 674 -79
16 -325 28 -378 19z m120 -74 c0 -27 -5 -43 -15 -47 -20 -7 -21 -6 -30 45 -6
40 -6 42 19 42 24 0 26 -4 26 -40z m70 -5 c0 -38 -3 -45 -20 -45 -17 0 -20 7
-20 45 0 38 3 45 20 45 17 0 20 -7 20 -45z m80 10 c0 -37 -11 -55 -32 -55 -14
0 -18 5 -14 16 3 9 6 28 6 44 0 23 3 27 20 23 13 -3 20 -14 20 -28z m-230 -16
c0 -33 -3 -40 -17 -37 -12 2 -20 16 -24 41 -5 34 -4 37 18 37 20 0 23 -5 23
-41z m306 7 c-3 -11 -6 -29 -6 -38 0 -11 -8 -18 -20 -18 -21 0 -26 23 -14 66
4 16 11 20 26 16 14 -3 18 -10 14 -26z m-386 7 c0 -10 3 -28 6 -40 5 -19 2
-23 -15 -23 -11 0 -21 4 -21 9 0 5 -3 23 -6 40 -6 27 -4 31 15 31 13 0 21 -6
21 -17z m-74 -29 c7 -36 -6 -62 -24 -50 -12 7 -24 65 -16 77 13 21 33 7 40
-27z m536 31 c7 -7 -12 -85 -21 -85 -32 1 -34 90 -2 90 10 0 20 -2 23 -5z
m-608 -53 c7 -26 6 -36 -5 -42 -7 -5 -17 -6 -20 -2 -12 13 -27 70 -21 76 14
15 37 -1 46 -32z m680 30 c3 -5 0 -25 -6 -44 -8 -28 -15 -34 -30 -30 -13 3
-17 10 -12 26 3 11 8 29 10 39 6 18 29 23 38 9z m-754 -48 c7 -20 8 -39 4 -43
-11 -9 -113 -51 -125 -51 -14 0 -42 61 -32 71 8 8 122 58 135 59 3 0 12 -16
18 -36z m912 -8 l38 -16 -17 -35 c-9 -19 -21 -35 -27 -35 -25 0 -134 53 -131
64 25 70 21 67 62 52 21 -8 55 -21 75 -30z m-1088 -73 c13 -28 14 -38 5 -44
-17 -10 -26 -4 -45 33 -13 25 -14 32 -2 39 20 13 23 12 42 -28z m1186 15 c0
-15 -33 -68 -42 -68 -17 0 -19 29 -4 59 11 20 21 28 31 25 8 -4 15 -11 15 -16z
m-1251 -53 c18 -32 19 -35 3 -44 -22 -13 -73 56 -51 70 22 14 26 11 48 -26z
m1321 13 c0 -21 -41 -67 -55 -61 -19 7 -19 12 5 50 13 22 25 31 35 27 8 -4 15
-11 15 -16z m-565 -9 c436 -54 789 -361 902 -788 23 -83 26 -117 27 -256 0
-137 -3 -173 -23 -249 -49 -187 -135 -347 -256 -475 -140 -149 -304 -248 -489
-296 -117 -30 -126 -30 -119 -7 2 10 -5 28 -17 42 -20 23 -24 35 -33 93 -4 24
-1 27 22 27 59 0 202 44 298 90 82 40 116 64 172 120 38 38 72 78 76 90 5 17
-24 53 -168 203 -96 100 -215 220 -263 267 -49 46 -97 96 -106 110 -27 38 -23
78 12 110 33 31 42 74 14 63 -13 -5 -10 6 11 43 40 69 43 72 62 44 35 -52 81
-89 123 -100 37 -10 46 -10 55 4 18 24 39 270 25 295 -13 25 -100 71 -133 71
-13 0 -41 -13 -62 -30 -21 -16 -41 -30 -45 -30 -3 0 -28 39 -55 86 -47 84 -88
204 -78 230 5 14 -23 74 -35 74 -5 0 -13 -5 -20 -12 -9 -9 -15 -9 -24 0 -19
19 -28 14 -28 -15 0 -23 -13 -37 -72 -78 -39 -27 -101 -78 -138 -112 l-68 -63
-6 38 c-9 56 -62 142 -88 142 -27 0 -99 -21 -115 -33 -17 -13 -17 -128 0 -148
6 -9 35 -34 63 -57 l51 -42 -5 -69 -5 -70 62 -106 c53 -91 61 -110 54 -133 -7
-21 -48 -51 -181 -131 l-172 -104 0 -110 c0 -126 -12 -124 108 -18 39 35 72
61 72 57 0 -3 -36 -62 -80 -131 -44 -69 -80 -127 -80 -129 0 -1 47 -13 104
-26 57 -12 110 -26 117 -30 9 -6 0 -28 -35 -84 -26 -42 -45 -83 -43 -91 7 -16
104 -95 118 -95 5 0 9 -25 9 -56 0 -57 -32 -144 -53 -144 -25 0 -178 92 -251
151 -186 150 -318 368 -368 609 -27 128 -21 355 12 475 95 349 348 621 682
735 71 24 135 38 248 54 53 7 128 6 215 -5z m-810 -88 c-8 -8 -16 -13 -17 -10
-2 2 -14 16 -27 31 -21 24 -22 30 -10 44 12 14 16 13 40 -18 24 -29 26 -35 14
-47z m1435 64 c11 -13 9 -20 -11 -43 -13 -15 -25 -29 -26 -31 -2 -2 -9 2 -17
8 -13 11 -12 17 7 47 25 38 29 40 47 19z m-1509 -66 c16 -22 18 -34 10 -42 -8
-8 -17 -4 -36 13 -27 26 -32 46 -12 53 6 3 13 6 14 6 1 1 11 -13 24 -30z
m1569 16 c11 -13 9 -20 -10 -40 -43 -46 -75 -25 -39 25 26 34 32 36 49 15z
m-1604 -104 c-11 -18 -31 -13 -56 14 -19 21 -21 27 -10 40 12 15 17 13 43 -13
16 -17 26 -35 23 -41z m1664 54 c11 -13 9 -20 -10 -40 -43 -46 -76 -24 -38 25
27 34 31 35 48 15z m-1740 -69 c27 -30 22 -67 -8 -45 -49 37 -52 42 -41 56 16
18 22 17 49 -11z m1796 9 c8 -21 -47 -67 -64 -53 -10 9 -7 17 14 40 31 32 42
35 50 13z m-1848 -64 c43 -37 18 -64 -28 -31 -18 13 -27 26 -23 35 7 20 23 18
51 -4z m1897 8 c8 -12 -33 -59 -51 -59 -27 0 -27 24 0 47 30 25 42 28 51 12z
m-1944 -70 c16 -11 29 -25 29 -30 0 -20 -31 -20 -60 1 -25 18 -28 25 -19 36
15 18 15 18 50 -7z m1034 -95 c20 -63 39 -140 42 -169 l6 -53 -61 -38 c-38
-24 -66 -50 -73 -67 l-12 -28 -67 66 c-58 57 -70 75 -84 127 l-17 61 33 34
c18 19 61 57 96 85 34 27 62 56 62 63 0 11 24 33 37 35 1 0 19 -52 38 -116z
m963 95 c4 -21 -56 -55 -71 -39 -9 9 -5 17 17 36 30 26 49 27 54 3z m-2026
-71 c12 -8 15 -18 9 -27 -9 -14 -35 -9 -65 14 -16 12 -17 17 -6 29 12 16 25
13 62 -16z m2047 -20 c-56 -34 -82 -4 -26 31 29 19 33 19 44 4 11 -14 8 -19
-18 -35z m-2100 -35 c34 -20 35 -22 22 -41 -7 -11 -14 -11 -42 3 -43 22 -41
19 -33 39 8 20 15 20 53 -1z m2159 -4 c1 -9 -12 -22 -32 -31 -31 -15 -35 -15
-40 -1 -4 9 -5 17 -4 18 57 39 71 41 76 14z m-2169 -75 c2 -1 -9 -35 -25 -74
-20 -51 -32 -69 -42 -65 -7 3 -25 8 -38 11 -13 3 -24 8 -24 11 0 2 14 38 31
79 l31 74 31 -16 c18 -9 34 -18 36 -20z m2225 -35 c14 -33 26 -66 26 -74 0
-13 -59 -39 -68 -30 -3 3 -18 34 -33 70 l-27 65 26 15 c15 8 32 14 38 15 6 0
23 -27 38 -61z m-2294 -161 c0 -17 -5 -19 -32 -13 -40 9 -52 19 -45 39 9 22
77 -1 77 -26z m2343 22 c4 -16 -2 -22 -31 -30 -27 -7 -38 -6 -44 3 -13 20 -10
24 25 35 45 14 44 14 50 -8z m-2375 -70 c6 0 12 -10 12 -21 0 -19 -4 -21 -36
-16 -44 7 -48 11 -40 33 4 11 13 14 29 10 12 -3 28 -6 35 -6z m2395 -9 c4 -15
-2 -20 -29 -26 -19 -3 -39 -3 -44 0 -18 11 -10 34 13 38 45 9 55 7 60 -12z
m-2396 -75 c3 -3 3 -11 0 -19 -4 -10 -15 -12 -42 -8 -20 3 -36 9 -35 14 0 4 0
13 0 21 0 11 8 12 36 6 19 -5 38 -11 41 -14z m2413 -6 c0 -14 -7 -20 -24 -20
-13 0 -31 -3 -39 -6 -9 -3 -16 2 -20 15 -5 20 7 26 61 30 16 1 22 -5 22 -19z
m-2444 -60 c17 0 24 -6 24 -20 0 -17 -7 -20 -40 -20 -36 0 -40 2 -40 26 0 20
4 25 16 20 9 -3 27 -6 40 -6z m1158 4 c18 -7 21 -40 6 -80 -13 -34 -16 -31
-24 34 -7 55 -7 56 18 46z m1294 -16 c-2 -19 -10 -24 -40 -26 -32 -3 -38 0
-38 17 0 19 10 23 68 30 8 0 12 -7 10 -21z m-2440 -80 c3 -15 -4 -18 -37 -18
-35 0 -41 3 -41 21 0 17 5 20 37 17 27 -2 39 -8 41 -20z m2442 2 c0 -17 -7
-20 -40 -20 -27 0 -40 4 -40 13 0 21 11 27 47 27 26 0 33 -4 33 -20z m-2440
-80 c0 -17 -7 -20 -40 -20 -33 0 -40 3 -40 20 0 17 7 20 40 20 33 0 40 -3 40
-20z m2440 -1 c0 -17 -5 -20 -37 -17 -27 2 -39 8 -41 21 -3 14 4 17 37 17 35
0 41 -3 41 -21z m-2430 -73 c0 -8 -10 -16 -22 -20 -41 -11 -58 -7 -58 13 0 15
8 21 33 23 38 4 47 1 47 -16z m2408 18 c21 -6 33 -44 13 -44 -38 0 -71 15 -71
31 0 20 17 24 58 13z m-2404 -89 c6 -16 1 -19 -46 -29 -23 -5 -28 -3 -28 13 0
31 63 44 74 16z m2411 5 c4 -6 4 -17 2 -24 -8 -20 -71 -5 -75 17 -3 13 4 17
32 17 19 0 38 -5 41 -10z m-2395 -74 c0 -14 -29 -26 -62 -26 -10 0 -18 6 -18
14 0 13 15 18 68 25 6 0 12 -5 12 -13z m2388 -1 c1 -1 -1 -10 -4 -19 -5 -14
-14 -16 -43 -11 -43 8 -43 8 -35 29 5 13 14 15 43 10 20 -4 37 -8 39 -9z
m-2368 -82 c0 -13 -58 -35 -71 -27 -22 13 -8 44 24 52 32 9 47 1 47 -25z
m2328 12 c24 -7 26 -13 14 -32 -6 -10 -16 -10 -44 -1 -28 8 -34 15 -30 30 3
11 11 17 21 14 9 -2 26 -7 39 -11z m-8 -91 c0 -21 -52 -134 -62 -134 -8 0 -47
18 -57 26 -2 1 9 34 24 72 l27 69 34 -10 c19 -6 34 -16 34 -23z m-2276 -40
c15 -37 26 -68 24 -69 -2 -1 -17 -10 -34 -18 -35 -18 -33 -21 -75 86 l-19 48
23 9 c44 18 53 12 81 -56z m54 -126 c2 -13 -35 -38 -57 -38 -23 0 -18 31 7 44
31 17 46 16 50 -6z m2117 10 c25 -11 33 -32 15 -43 -11 -7 -70 21 -70 34 0 22
19 26 55 9z m-2097 -98 c-28 -24 -44 -25 -52 -5 -4 10 5 22 26 35 28 17 34 18
41 4 6 -10 1 -21 -15 -34z m2079 -8 c-13 -13 -19 -12 -45 4 -25 14 -29 21 -21
35 9 17 11 17 45 -3 31 -18 34 -23 21 -36z m-2017 -27 c0 -7 -12 -23 -26 -34
-25 -20 -28 -20 -39 -4 -11 15 -9 20 19 39 32 23 46 22 46 -1z m1980 -24 c0
-3 -4 -12 -9 -20 -7 -11 -15 -9 -40 10 -34 25 -36 30 -20 46 9 9 19 6 40 -10
16 -11 29 -23 29 -26z m-1936 -28 c5 -11 -2 -26 -19 -42 -23 -24 -26 -24 -41
-9 -16 15 -15 18 12 42 35 30 40 31 48 9z m1886 -38 c0 -27 -22 -27 -51 1 -22
21 -26 31 -18 41 9 10 17 9 40 -8 16 -11 29 -27 29 -34z m-1830 -24 c0 -4 -13
-20 -29 -35 -26 -25 -30 -26 -39 -10 -7 13 -4 22 16 39 24 21 52 24 52 6z
m1760 -6 c21 -23 22 -27 9 -40 -13 -14 -18 -13 -38 9 -14 15 -21 32 -18 40 9
22 20 20 47 -9z m-1099 -25 c24 -7 86 -17 138 -24 l94 -12 13 -44 c15 -48 18
-99 8 -124 -5 -12 -20 -16 -58 -16 -54 1 -188 16 -217 25 -27 9 -41 66 -33
135 5 48 4 64 -7 72 -11 8 -10 9 3 4 9 -2 36 -10 59 -16z m1054 -70 c-15 -14
-19 -12 -41 14 -20 22 -22 31 -13 42 10 13 16 11 41 -13 26 -25 27 -28 13 -43z
m-1670 50 c8 -13 -24 -60 -41 -60 -22 0 -26 18 -8 45 17 26 38 32 49 15z m43
-86 c-14 -15 -31 -23 -37 -20 -16 10 -14 20 10 50 20 25 23 26 38 12 14 -15
13 -18 -11 -42z m1567 -13 c-14 -14 -18 -13 -39 14 -18 22 -21 33 -14 43 9 10
17 7 40 -15 25 -24 27 -29 13 -42z m-1485 0 c0 -5 -10 -23 -35 -59 -4 -5 -35
10 -35 18 0 18 42 59 55 53 8 -3 15 -8 15 -12z m1440 -42 c0 -4 -8 -10 -17
-13 -11 -5 -23 1 -35 16 -21 27 -23 45 -5 51 11 5 57 -39 57 -54z m-1380 -3
c0 -6 -9 -22 -19 -35 -13 -17 -22 -21 -34 -15 -14 8 -14 12 4 41 19 30 49 36
49 9z m1307 -40 c-7 -22 -33 -16 -49 12 -14 23 -15 31 -5 41 9 9 17 6 35 -15
13 -14 21 -31 19 -38z m-1250 13 c13 -13 -15 -69 -34 -69 -22 0 -24 20 -6 50
19 33 24 35 40 19z m1171 -21 c16 -24 18 -35 9 -40 -22 -14 -35 -8 -47 23 -11
26 -11 32 1 40 8 5 15 9 16 9 0 0 10 -15 21 -32z m-1057 -34 c35 -14 65 -27
67 -28 6 -6 -21 -66 -29 -66 -9 0 -130 49 -137 55 -4 3 26 65 32 65 1 0 31
-12 67 -26z m991 -5 l18 -30 -65 -30 c-35 -16 -71 -29 -78 -29 -8 0 -18 15
-24 34 l-10 34 61 25 c79 32 78 32 98 -4z m-396 9 c5 -7 3 -8 -5 -4 -7 5 -22
0 -34 -11 l-22 -18 19 23 c21 25 32 27 42 10z m-83 -35 c-13 -2 -35 -2 -50 0
-16 2 -5 4 22 4 28 0 40 -2 28 -4z m307 -69 c0 -7 -9 -14 -20 -17 -16 -4 -21
1 -26 30 -9 47 15 65 33 25 7 -15 12 -32 13 -38z m-685 24 c-10 -44 -12 -47
-34 -41 -16 4 -17 9 -8 39 7 23 16 34 29 34 17 0 19 -5 13 -32z m608 -50 c-2
-5 -12 -8 -22 -8 -25 0 -35 68 -11 73 15 3 42 -50 33 -65z m-533 45 c0 -41
-12 -61 -32 -55 -14 3 -18 10 -14 26 3 11 6 27 6 34 0 6 9 12 20 12 12 0 20
-7 20 -17z m71 -5 c-1 -5 -1 -21 -1 -38 0 -23 -4 -30 -20 -30 -21 0 -27 30
-14 65 6 15 36 18 35 3z m383 -20 c4 -21 2 -34 -6 -40 -20 -12 -25 -10 -32 15
-11 40 -7 57 13 57 13 0 20 -10 25 -32z m-304 -19 c0 -36 -2 -40 -22 -37 -13
2 -22 6 -20 11 1 4 2 21 2 37 0 23 4 30 20 30 17 0 20 -7 20 -41z m225 1 c0
-25 -5 -36 -17 -38 -15 -3 -18 4 -18 38 0 34 3 41 18 38 12 -2 17 -13 17 -38z
m-145 -5 c0 -31 -3 -35 -25 -35 -18 0 -25 5 -25 19 0 33 11 51 31 51 15 0 19
-7 19 -35z m70 0 c0 -28 -4 -35 -20 -35 -16 0 -20 7 -20 35 0 28 4 35 20 35
16 0 20 -7 20 -35z"/>
</g>
</svg>
