<?xml version="1.0" standalone="no"?>
<!DOCTYPE svg PUBLIC "-//W3C//DTD SVG 20010904//EN"
 "http://www.w3.org/TR/2001/REC-SVG-20010904/DTD/svg10.dtd">
<svg version="1.0" xmlns="http://www.w3.org/2000/svg"
 width="260.000000pt" height="260.000000pt" viewBox="0 0 260.000000 260.000000"
 preserveAspectRatio="xMidYMid meet">
<metadata>
Created by potrace 1.14, written by Peter Selinger 2001-2017
</metadata>
<g transform="translate(0.000000,260.000000) scale(0.100000,-0.100000)"
fill="#000000" stroke="none">
<path d="M1170 2594 c-14 -2 -56 -9 -95 -15 -157 -25 -356 -106 -510 -207 -91
-60 -277 -247 -339 -341 -156 -235 -221 -452 -220 -736 0 -175 13 -260 64
-409 66 -196 162 -349 314 -501 197 -196 406 -308 674 -362 120 -24 376 -24
490 1 530 114 923 508 1029 1034 24 120 24 376 -1 490 -26 122 -67 237 -127
353 -178 347 -514 598 -902 675 -78 15 -324 27 -377 18z m99 -614 c350 -37
376 -41 405 -64 17 -13 99 -80 181 -148 l150 -124 3 -108 3 -108 -33 6 c-107
19 -461 67 -465 63 -4 -5 54 -240 60 -241 1 -1 30 -27 64 -60 l61 -58 132 51
c73 29 135 49 138 46 3 -3 20 -40 38 -83 31 -74 31 -78 15 -97 -10 -11 -67
-81 -128 -155 l-109 -135 -29 -132 c-16 -73 -32 -133 -37 -133 -4 0 -230 150
-502 334 -418 281 -502 342 -542 390 -25 32 -44 59 -42 62 3 2 54 -2 113 -11
60 -8 114 -15 120 -15 7 0 35 27 63 61 l52 61 0 111 c0 103 -5 129 -54 320
-34 130 -50 207 -42 207 6 0 179 -18 385 -40z"/>
</g>
</svg>
