<svg width="101" height="153" viewBox="0 0 101 153" fill="none" xmlns="http://www.w3.org/2000/svg">
<path d="M26.4031 116.924H28.3826L25.6883 146.012L22.598 116H16.2636L13.2503 146.012L10.325 116.924H12.3045V116H2V116.924H3.97952L8.10353 151.796H14.438L17.2973 122.29L20.3106 151.796H26.656L30.3731 116.924H32.4077V116H26.4031V116.924ZM7.11377 129.395H8.69739L8.81836 130.363H7.20175L7.11377 129.395ZM8.36746 139.743H9.95108L10.0721 140.7H8.45544L8.36746 139.743ZM7.61964 133.53H9.20326L9.31323 134.498H7.69662L7.61964 133.53ZM7.87258 135.608H9.42321L9.53318 136.565H7.94957L7.87258 135.608ZM8.97232 131.462L9.09329 132.43H7.45468L7.33371 131.462H8.97232ZM9.72014 137.676L9.84111 138.633H8.2135L8.09253 137.676H9.72014ZM10.226 141.811L10.347 142.768H8.70838L8.58741 141.811H10.226ZM10.413 143.878L10.5339 144.835H8.96132L8.84035 143.878H10.413ZM10.6659 145.946L10.7759 146.914H9.20326L9.09329 145.946H10.6659ZM9.31323 148.013H10.8969L11.0068 148.981H9.4562L9.31323 148.013ZM7.11377 116.924L8.48843 128.295H6.9488L5.56314 116.924H7.11377ZM9.64316 150.873L9.54418 150.081H11.1278L11.2268 150.873H9.64316ZM19.5408 129.395H21.1354L21.2343 130.363H19.6397L19.5408 129.395ZM20.4535 137.676H22.0372L22.1471 138.633H20.5525L20.4535 137.676ZM20.0027 133.53H21.5863L21.6852 134.498H20.0906L20.0027 133.53ZM21.3443 131.462L21.4543 132.43H19.8707L19.7607 131.462H21.3443ZM21.7952 135.608L21.9052 136.565H20.3106L20.2006 135.608H21.7952ZM22.2571 139.743L22.3561 140.7H20.7725L20.6735 139.743H22.2571ZM21.5753 148.013H23.1589L23.2689 148.981H21.6852L21.5753 148.013ZM21.4543 146.914L21.3443 145.946H22.9389L23.0379 146.914H21.4543ZM21.2234 144.835L21.1244 143.878H22.708L22.818 144.835H21.2234ZM21.0034 142.768L20.8934 141.811H22.51L22.62 142.768H21.0034ZM19.7497 116.924L21.0034 128.295H19.4088L18.1661 116.924H19.7497ZM21.9492 150.873L21.8612 150.081H23.3898L23.4778 150.873H21.9492Z" fill="#EDE4C6"/>
<path d="M50.0917 130.165C50.0917 127.041 46.7925 124.952 41.6237 124.952C36.455 124.952 33.1448 127.041 33.1448 130.165V133.332H39.3253V127.91C39.3253 126.81 39.8751 125.865 41.6237 125.865C43.3723 125.865 43.9112 126.788 43.9112 127.91V136.499H42.0196C36.8619 136.499 32.9028 137.83 32.9028 141.459V147.342C32.9028 150.411 35.1023 152.049 39.5012 152.049C41.0277 152.111 42.5437 151.773 43.9002 151.071V151.796H52.0712V150.873H50.0807L50.0917 130.165ZM37.2578 126.481C36.7379 126.956 36.3997 127.598 36.301 128.295H35.0803C35.6056 127.484 36.365 126.851 37.2578 126.481ZM34.6404 129.78C34.6302 129.644 34.6302 129.508 34.6404 129.373H36.191V130.363H34.6074L34.6404 129.78ZM34.6404 132.386V131.462H36.235V132.408L34.6404 132.386ZM36.455 138.611H35.7072C36.0967 138.307 36.5357 138.072 37.0048 137.918C36.7858 138.126 36.6004 138.367 36.455 138.633V138.611ZM36.0701 148.959H34.6074C34.4953 148.648 34.4286 148.322 34.4095 147.991H35.9821V148.398C35.994 148.595 36.0234 148.79 36.0701 148.981V148.959ZM35.9931 146.892H34.4095V145.924H35.9931V146.892ZM35.9931 144.813H34.4095V143.856H35.9931V144.813ZM35.9931 142.746H34.4095V141.789H35.9931V142.746ZM35.9931 140.546V140.656H34.4535C34.5101 140.321 34.6216 139.998 34.7834 139.699H36.0591C36.0125 139.994 35.9904 140.292 35.9931 140.59V140.546ZM35.3442 150.037H36.51C36.7501 150.475 37.089 150.852 37.4997 151.137C36.6914 151.009 35.9402 150.641 35.3442 150.081V150.037ZM43.9112 150.114C43.133 150.684 42.1923 150.988 41.2278 150.983C39.4792 150.983 39.0284 150.158 39.0284 149.036V139.468C39.0284 138.193 39.9741 137.423 42.0416 137.423H43.8562L43.9112 150.114ZM46.8585 128.251H45.4178C45.4257 127.801 45.3213 127.356 45.1139 126.957C44.9065 126.557 44.6027 126.216 44.2301 125.964C44.8105 126.14 45.346 126.439 45.7997 126.841C46.2534 127.244 46.6146 127.74 46.8585 128.295V128.251ZM47.0014 136.521H45.4178V135.564H47.0014V136.521ZM47.0014 134.454H45.4178V133.486H47.0014V134.454ZM45.4178 147.969H47.0014V148.937H45.4178V147.969ZM45.4178 146.87V145.902H47.0014V146.87H45.4178ZM45.4178 144.791V143.834H47.0014V144.791H45.4178ZM45.4178 142.724V141.767H47.0014V142.724H45.4178ZM45.4178 140.656V139.699H47.0014V140.656H45.4178ZM45.4178 138.589V137.632H47.0014V138.589H45.4178ZM47.0014 132.386H45.4178V131.462H47.0014V132.386ZM45.4178 130.363V129.395H47.0014V130.363H45.4178ZM45.4178 150.873V150.081H47.0014V150.873H45.4178Z" fill="#EDE4C6"/>
<path d="M61.507 116H53.303V116.924H55.2825V150.873H53.303V151.796H63.4425V150.873H61.463L61.507 116ZM58.4167 116.924V128.295H56.8331V116.924H58.4167ZM56.8331 146.914V145.946H58.4167V146.914H56.8331ZM58.4167 148.013V148.981H56.8331V148.013H58.4167ZM56.8331 144.835V143.878H58.4167V144.835H56.8331ZM56.8331 142.768V141.811H58.4167V142.768H56.8331ZM56.8331 140.7V139.743H58.4167V140.7H56.8331ZM56.8331 138.633V137.676H58.4167V138.633H56.8331ZM56.8331 136.565V135.608H58.4167V136.565H56.8331ZM56.8331 134.498V133.53H58.4167V134.498H56.8331ZM56.8331 132.43V131.462H58.4167V132.43H56.8331ZM56.8331 130.363V129.395H58.4167V130.363H56.8331ZM56.8331 150.873V150.081H58.4167V150.873H56.8331Z" fill="#EDE4C6"/>
<path d="M73.153 148.827V126.129H77.5519V125.205H73.153V116L66.9724 117.793V125.205H64.9929V126.129H66.9724V146.573C67.0167 147.275 67.2336 147.956 67.6038 148.554C67.974 149.153 68.4862 149.651 69.0949 150.004V150.081H69.2159C71.2443 151.277 73.5708 151.872 75.9243 151.796H77.9038V150.873H75.9243C74.1977 150.873 73.153 149.949 73.153 148.827ZM70.2936 148.981H69.3919C69.1094 148.701 68.8785 148.373 68.71 148.013H70.0847C70.098 148.345 70.1687 148.673 70.2936 148.981V148.981ZM70.0627 146.914H68.4791V145.946H70.0627V146.914ZM70.0627 144.835H68.4791V143.878H70.0627V144.835ZM70.0627 142.768H68.4791V141.811H70.0627V142.768ZM70.0627 140.7H68.4791V139.743H70.0627V140.7ZM70.0627 138.633H68.4791V137.676H70.0627V138.633ZM70.0627 136.565H68.4791V135.608H70.0627V136.565ZM70.0627 134.498H68.4791V133.53H70.0627V134.498ZM70.0627 132.43H68.4791V131.462H70.0627V132.43ZM70.0627 130.363H68.4791V129.395H70.0627V130.363ZM70.0627 117.947V128.295H68.4791V118.397L70.0627 117.947ZM70.9645 150.048V149.971C71.0057 150.017 71.0498 150.062 71.0964 150.103L70.9645 150.048Z" fill="#EDE4C6"/>
<path d="M97.4791 125.205H80.3673V133.332H86.2288V126.129H91.2986L80.0483 150.873V151.796H97.4791V143.658H91.6175V150.873H86.2288L97.4791 126.129V125.205ZM83.4575 126.129V128.328H81.8959V126.129H83.4575ZM83.4575 129.428V130.363H81.8959V129.395L83.4575 129.428ZM81.8959 132.408V131.462H83.4905V132.408H81.8959ZM93.1132 150.873V150.081H94.7078V150.873H93.1132ZM94.7078 148.013V148.981H93.1132V148.013H94.7078ZM93.1132 146.914V145.946H94.7078V146.914H93.1132ZM94.7078 144.582V144.835H93.1132V144.582H94.7078ZM94.3889 126.129L93.3991 128.328H91.7935L92.7832 126.129H94.3889ZM83.3915 146.914L83.8314 145.946H85.415L84.9861 146.914H83.3915ZM84.4913 148.013L84.0514 148.981H82.4678L82.9076 148.013H84.4913ZM84.3483 144.835L84.7882 143.878H86.2948L85.8549 144.835H84.3483ZM85.2831 142.768L85.723 141.811H87.3066L86.8777 142.768H85.2831ZM86.2288 140.7L86.6687 139.743H88.2523L87.8125 140.7H86.2288ZM87.1636 138.633L87.6035 137.676H89.1871L88.7582 138.633H87.1636ZM88.1094 136.565L88.5493 135.608H90.1329L89.693 136.565H88.1094ZM89.0442 134.498L89.484 133.53H91.0677L90.6388 134.498H89.0442ZM89.9899 132.43L90.4298 131.462H92.0134L91.5735 132.43H89.9899ZM90.9247 130.363L91.3646 129.395H92.8932L92.4643 130.363H90.9247ZM81.61 150.873L81.9619 150.081H83.5455L83.1936 150.873H81.61Z" fill="#EDE4C6"/>
<path d="M52.7328 19.8119C52.8991 19.6845 53.0162 19.5036 53.0646 19.2998C53.1129 19.096 53.0895 18.8817 52.9983 18.6932L51.9744 16.6644C51.9438 16.6177 51.9042 16.5776 51.8579 16.5464C51.8115 16.5153 51.7594 16.4938 51.7046 16.4832C51.6498 16.4726 51.5934 16.4731 51.5387 16.4847C51.4841 16.4962 51.4324 16.5187 51.3866 16.5506L50.6282 17.2143C51.3866 17.3849 52.183 18.7122 52.7328 19.8119Z" fill="#EDE4C6"/>
<path d="M97.5943 34.6773C94.5611 25.256 88.8001 16.9468 81.0408 10.8022C73.2816 4.65766 63.8732 0.954182 54.0075 0.16089C44.1418 -0.632401 34.2626 1.52018 25.6213 6.34599C16.9799 11.1718 9.96517 18.4537 5.46561 27.2693C0.966041 36.085 -0.815921 46.0377 0.345432 55.8669C1.50678 65.6961 5.5592 74.9594 11.9894 82.4837C18.4196 90.0079 26.9382 95.4545 36.4663 98.1335C45.9944 100.813 56.1032 100.603 65.5124 97.5328C78.092 93.4379 88.5341 84.521 94.5483 72.7378C100.563 60.9546 101.658 47.267 97.5943 34.6773ZM98.5992 49.3341H95.5275C95.5275 48.8601 95.5275 48.3861 95.5275 47.912L98.6182 47.7224C98.5802 48.2723 98.5992 48.8032 98.5992 49.3341ZM98.4665 46.3004L95.3569 46.5089C95.3569 46.0349 95.3569 45.5609 95.2241 45.0869L98.3148 44.6887C98.3717 45.2385 98.4096 45.7694 98.4665 46.3004ZM98.1252 43.2856L94.9966 43.7596L94.7691 42.3565L97.8408 41.7687C97.9735 42.2238 98.0493 42.7547 98.1252 43.2856ZM97.6132 40.2897L94.5226 40.8775C94.5226 40.4035 94.314 39.9295 94.2003 39.4555L97.253 38.697C97.3667 39.2279 97.4995 39.7588 97.6132 40.2897V40.2897ZM96.8927 37.3318L93.84 38.0713C93.7262 37.6162 93.5935 37.1801 93.4418 36.7251L96.4566 35.7581L96.8927 37.3318ZM95.9826 34.4498L93.1005 35.4168C92.4661 33.5988 91.7253 31.8198 90.8821 30.0888L93.5935 28.5908C94.5215 30.4899 95.3259 32.447 96.0015 34.4498H95.9826ZM62.6493 88.9245C60.616 89.5675 58.537 90.0555 56.4301 90.3845L56.1457 90.8775L56.3732 93.1528L55.8423 93.3614L55.3303 91.9204C55.3016 91.8647 55.2581 91.8179 55.2046 91.7853C55.1511 91.7527 55.0896 91.7354 55.027 91.7354C54.9643 91.7354 54.9028 91.7527 54.8493 91.7853C54.7958 91.8179 54.7523 91.8647 54.7236 91.9204L54.4202 92.3565C54.1768 92.7182 53.8456 93.0122 53.4576 93.2112C53.0697 93.4102 52.6376 93.5075 52.2018 93.4941H50.0023C49.9435 93.4992 49.8849 93.483 49.837 93.4485C49.7891 93.414 49.7552 93.3634 49.7415 93.3061C49.7277 93.2487 49.735 93.1883 49.762 93.1358C49.7889 93.0833 49.8339 93.0423 49.8886 93.0201C50.8064 92.5246 51.6029 91.8317 52.2208 90.9913C48.6601 91.1789 45.0903 90.8985 41.6026 90.157C40.8027 89.1704 40.4094 87.9159 40.5029 86.6492L40.8063 82.4399C39.1582 81.9186 37.5644 81.2392 36.0471 80.4111V84.2033C36.0407 84.4852 35.9761 84.7628 35.8575 85.0186L34.6819 87.3129C34.6302 87.4158 34.6033 87.5294 34.6033 87.6447C34.6033 87.7599 34.6302 87.8735 34.6819 87.9765C33.658 87.5593 32.6151 87.1043 31.6292 86.5923C23.2528 82.3158 16.6183 75.2672 12.8562 66.6476C9.094 58.0279 8.43693 48.3704 10.9969 39.3206C13.5568 30.2708 19.1754 22.3885 26.8954 17.0168C34.6153 11.6452 43.959 9.11637 53.3344 9.86136C62.7097 10.6063 71.5368 14.579 78.3115 21.1025C85.0862 27.6259 89.3895 36.2966 90.4881 45.6371C91.5868 54.9777 89.4127 64.4102 84.3365 72.3275C79.2603 80.2449 71.5959 86.1573 62.6493 89.0573V88.9245ZM92.9868 27.3773L90.1426 28.8184C89.9151 28.4012 89.7065 27.9841 89.46 27.5859L92.1904 25.9742C92.4369 26.4483 92.7213 26.9033 92.9678 27.3773H92.9868ZM91.4699 24.7987L88.7205 26.4293C88.4741 26.0122 88.2086 25.6329 87.9431 25.2348L90.5787 23.4335C90.8821 23.8316 91.2044 24.2677 91.4699 24.7987ZM89.7824 22.2579L87.1468 24.0592C86.8813 23.661 86.5969 23.3007 86.3125 22.9215L88.8343 21.0254C89.1756 21.3288 89.479 21.7649 89.7824 22.201V22.2579ZM86.9382 18.5795C87.2985 18.9966 87.6208 19.4137 87.9431 19.8498L85.4403 21.7459L84.5302 20.6462L86.9382 18.5795ZM85.9902 17.5366L83.6201 19.6034L82.6531 18.5605L84.9094 16.3042C85.2507 16.6834 85.6299 17.0816 85.9902 17.4797V17.5366ZM83.8855 15.3182L81.6102 17.5935L80.5673 16.6455L82.691 14.2374L83.8855 15.3182ZM81.724 13.2514L79.5055 15.6595L78.4058 14.7683L80.3019 12.2276C80.7949 12.5688 81.231 12.8912 81.724 13.2514ZM79.3538 11.3553L77.2681 13.9151C76.9079 13.6307 76.5287 13.3462 76.1305 13.0808L78.0266 10.4073C78.4058 10.7107 78.8229 11.033 79.259 11.3553H79.3538ZM76.7752 9.6299L74.8791 12.3034L73.7604 11.526L75.4289 8.73874C75.884 9.00419 76.3201 9.32653 76.7752 9.6299ZM74.1396 8.01823L72.5089 10.8055L71.2575 10.1229L72.7365 7.24083L74.1396 8.01823ZM71.4851 6.59615L70.0061 9.49718C68.2731 8.64393 66.4871 7.90293 64.6591 7.27875L65.6641 4.18812C67.6649 4.86909 69.6216 5.6733 71.523 6.59615H71.4851ZM64.3557 3.75201L63.3508 6.84265L62.0046 6.46343L62.763 3.31591L64.3557 3.75201ZM61.4358 2.93669L60.6394 6.10317L59.2553 5.83772L59.862 2.65228C60.3929 2.70916 60.8669 2.80397 61.4358 2.93669ZM58.4589 2.32994L57.8522 5.53434C57.3971 5.53434 56.9231 5.36369 56.468 5.30681L56.8662 2.04553L58.4589 2.32994ZM55.4631 1.9128L55.0459 5.13616L53.6428 4.98448L53.8514 1.72319C54.3823 1.76112 54.9132 1.85592 55.4631 1.9128ZM52.4293 1.66631L52.2208 4.90863C51.7657 4.90863 51.2917 4.90863 50.8176 4.90863V1.59047L52.4293 1.66631ZM49.4904 1.59047V4.85175C49.0164 4.85175 48.5423 4.85175 48.0873 4.85175L47.7839 1.66631L49.4904 1.59047ZM46.4566 1.72319L46.6652 4.98448L45.2621 5.1172L44.7501 1.9128C45.2811 1.83696 45.8309 1.76112 46.3618 1.72319H46.4566ZM43.347 2.04553L43.8021 5.30681L42.418 5.51538L41.8112 2.32994L43.347 2.04553ZM40.3512 2.57644L40.958 5.83772L39.5738 6.16005L38.7775 2.97462L40.3512 2.57644ZM37.3933 3.29695L38.2086 6.42551C37.7536 6.53927 37.2985 6.672 36.8434 6.82369L35.8385 3.75201C36.3694 3.58137 36.8814 3.44864 37.3933 3.31591V3.29695ZM34.4923 4.16915L35.4972 7.25979C33.6836 7.88953 31.9106 8.63041 30.1882 9.47822L28.7282 6.59615C30.5974 5.67403 32.5226 4.86977 34.4923 4.18812V4.16915ZM27.4578 7.24083L28.9178 10.1229L27.6663 10.7676L26.0167 7.99926L27.4578 7.24083ZM24.8412 8.7577L26.4528 11.526L25.2583 12.2655L23.3622 9.61094C23.8931 9.30757 24.3482 9.02315 24.8412 8.7577ZM22.2625 10.3694L24.1586 13.0429C23.7604 13.3083 23.4191 13.6117 23.0399 13.8961L21.049 11.3553C21.3903 11.033 21.8074 10.6728 22.2435 10.3694H22.2625ZM19.8544 12.2655L21.7505 14.8062C21.3903 15.0907 20.9921 15.3561 20.6318 15.6784L18.5651 13.2135L19.8544 12.2655ZM17.5602 14.1616L19.6648 16.5696L18.6409 17.5366L16.3656 15.3182C16.7448 14.92 17.143 14.5597 17.5412 14.1995L17.5602 14.1616ZM15.3607 16.2852L17.5981 18.5415C17.2568 18.8828 16.9534 19.2431 16.65 19.6034L14.242 17.4797C14.6023 17.0816 14.9436 16.6644 15.3607 16.2852ZM13.3129 18.5605L15.702 20.6652L14.7729 21.727L12.2511 19.8309C12.5924 19.3569 12.9716 18.9776 13.3129 18.5605ZM11.4168 21.0065L13.9197 22.9026C13.6353 23.2818 13.3698 23.68 13.1043 24.0592L10.4688 22.2768C10.7911 21.8028 11.0945 21.3478 11.4168 21.0065ZM9.67242 23.3955L12.289 25.1779C12.0236 25.5761 11.7771 25.9742 11.5306 26.3724L8.80022 24.7987C9.08463 24.3057 9.35008 23.8506 9.67242 23.3955ZM8.11762 26.0122L10.829 27.6049L10.1275 28.8373L7.3023 27.3963C7.5488 26.9223 7.77633 26.4672 8.09866 26.0122H8.11762ZM6.63867 28.5908L9.42593 30.0129C8.57113 31.7671 7.82395 33.5717 7.18854 35.4168L4.21167 34.4498C4.89409 32.4467 5.70476 30.4897 6.63867 28.5908V28.5908ZM3.77557 35.815L6.75244 36.763C6.60075 37.2181 6.46802 37.6731 6.3353 38.1282L3.32051 37.3508L3.77557 35.815ZM2.97921 38.7349L5.994 39.5123C5.88023 39.9674 5.76647 40.4225 5.67166 40.8965L2.61895 40.3087C2.73272 39.7778 2.84648 39.2658 2.97921 38.7349V38.7349ZM2.3535 41.7118L5.38725 42.2806C5.29244 42.7547 5.23556 43.2287 5.15972 43.6837L2.08805 43.3045C2.08805 42.7736 2.2587 42.2427 2.3535 41.7118V41.7118ZM1.9174 44.7076L4.98907 45.1058C4.98907 45.5798 4.8753 46.0539 4.83738 46.5279L1.76571 46.3193C1.80363 45.7884 1.86052 45.2575 1.9174 44.7076ZM1.68987 47.7414L4.74258 47.931C4.74258 48.405 4.74258 48.879 4.74258 49.3531H1.63298C1.63298 48.8222 1.65195 48.2913 1.68987 47.7414ZM1.68987 50.7751H4.68569V52.2162L1.63298 52.4058C1.65195 51.8559 1.63298 51.344 1.63298 50.7751H1.68987ZM1.84155 53.8089L4.8753 53.6193C4.8753 54.0933 4.8753 54.5673 5.00803 55.0413L1.97428 55.4206C1.86052 54.8897 1.82259 54.3587 1.78467 53.8089H1.84155ZM2.08805 56.8426L5.08387 56.4634C5.08387 56.9185 5.2166 57.3925 5.31141 57.8665L2.33454 58.4354C2.27766 57.9044 2.20181 57.3735 2.08805 56.8426ZM2.59999 59.8385L5.57686 59.2696C5.57686 59.6109 5.70959 59.9522 5.78543 60.2935L2.86544 61.033C2.80856 60.6348 2.71376 60.2366 2.63791 59.8385H2.59999ZM3.20674 62.3982L6.12673 61.6587C6.27841 62.2465 6.44906 62.8153 6.61971 63.4031L3.75661 64.3322C3.60492 63.6875 3.41531 63.0429 3.24466 62.3982H3.20674ZM4.21167 65.6784L7.07477 64.7493C7.71679 66.5823 8.47031 68.3743 9.33112 70.1153L6.67659 71.4615C5.74463 69.5878 4.93397 67.6561 4.24959 65.6784H4.21167ZM7.26438 72.7319L9.91891 71.3857C10.1464 71.8028 10.3361 72.2389 10.5825 72.6561L8.06074 74.0971C7.77633 73.6989 7.5488 73.2059 7.3023 72.7319H7.26438ZM8.78126 75.3675L11.322 73.8696C11.5685 74.2677 11.815 74.6659 12.0805 75.0641L9.67242 76.7326C9.36905 76.2397 9.08463 75.7846 8.81918 75.3675H8.78126ZM10.4309 77.8893L12.8768 76.2207C13.1612 76.6189 13.4646 76.9602 13.749 77.3584L11.4168 79.2545C11.0945 78.7804 10.7532 78.3823 10.4309 77.8893ZM12.327 80.2973L14.6591 78.4012C14.9625 78.7804 15.228 79.1786 15.5313 79.5389L13.294 81.6815C12.9337 81.2074 12.6303 80.7713 12.289 80.3542L12.327 80.2973ZM15.3607 83.824L14.261 82.6485L16.4604 80.7524L17.4464 81.6815L15.3607 83.824ZM16.3467 84.8669L18.4134 82.7812L19.4942 83.7482L17.5981 85.9287C17.143 85.5684 16.7259 85.2461 16.3467 84.8669ZM18.622 86.8768L20.5181 84.6773C20.8783 84.9807 21.2196 85.322 21.5988 85.6253L19.7028 87.9386C19.4183 87.5973 19.0391 87.2181 18.622 86.8768V86.8768ZM20.9921 88.7728L22.7744 86.4786C23.1536 86.763 23.5518 87.0284 23.95 87.2939L22.3004 89.7209C21.8643 89.3986 21.4092 89.0952 21.049 88.7728H20.9921ZM23.457 90.5362L25.1066 88.1282L26.3201 88.8866L24.8412 91.3895C24.3671 91.1619 23.9121 90.8396 23.457 90.5362ZM26.0736 92.091L27.5526 89.5882L28.785 90.3087L27.4578 92.8874C26.9838 92.6409 26.5287 92.3565 26.0736 92.091V92.091ZM28.7282 93.551L30.0554 90.9723C31.7902 91.8216 33.576 92.5625 35.4024 93.1907L34.5112 95.978C32.5358 95.288 30.6044 94.4774 28.7282 93.551V93.551ZM35.8575 96.3951L36.7486 93.6458L38.1328 94.044L37.4123 96.8502L35.8575 96.3951ZM38.7964 97.2105L39.5169 94.4042L40.92 94.7076L40.3702 97.5707L38.7964 97.2105ZM41.7733 97.8362L42.3042 94.992L43.7263 95.2006L43.366 98.0827L41.7733 97.8362ZM44.7691 98.2723L45.1294 95.3902L46.5704 95.5229L46.3808 98.424L44.7691 98.2723ZM47.8029 98.4998L47.9735 95.6177H49.4145V98.5567C48.8836 98.5567 48.3338 98.5377 47.8029 98.4998ZM50.8366 98.4998V95.6367H52.2776L52.4483 98.5567L50.8366 98.4998ZM53.8704 98.3481L53.6807 95.4661C54.1737 95.4661 54.6478 95.3523 55.1218 95.2954L55.482 98.1964C54.9511 98.3292 54.4013 98.3671 53.8704 98.405V98.3481ZM56.8851 98.0068L56.5249 95.1248C56.9989 95.1248 57.4729 94.9731 57.947 94.8972L58.4779 97.7603L56.8851 98.0068ZM59.881 97.4949L59.3311 94.6128C59.8051 94.518 60.2791 94.4422 60.7342 94.3284L61.4547 97.1346L59.881 97.4949ZM62.763 96.8502L62.0236 94.0061C62.4976 93.8733 62.9526 93.7596 63.4077 93.6079L64.2989 96.3951L62.763 96.8502ZM65.6641 95.959L64.7539 93.1528C66.5908 92.5284 68.3835 91.7809 70.1199 90.9154L71.4661 93.551C69.6101 94.4738 67.6976 95.2781 65.7399 95.959H65.6641ZM72.7365 92.9063L71.3903 90.2708C71.8264 90.0622 72.2435 89.8347 72.6606 89.6071L74.1585 92.1289L72.7365 92.9063ZM75.3721 91.4084L73.8552 88.8487L75.0687 88.0903L76.7372 90.5362L75.3721 91.4084ZM77.9318 89.7399L76.3391 87.3697C76.7372 87.0853 77.0975 86.7819 77.4767 86.4975L79.3728 88.8297C78.8609 89.1141 78.4437 89.4365 77.9318 89.7399ZM80.3588 87.8438L78.4627 85.5116C78.8419 85.2082 79.2211 84.9427 79.5814 84.6204L81.4775 86.8199L80.3588 87.8438ZM82.672 85.9477L80.7759 83.7292L81.8188 82.7433L83.9234 84.8479C83.6201 85.2082 83.1271 85.5684 82.7289 85.9287L82.672 85.9477ZM84.8525 83.843L82.8237 81.6815C83.165 81.3402 83.4494 80.9609 83.7717 80.6196L86.0091 82.5157L84.8525 83.843ZM86.9572 81.6815L84.7008 79.5958C85.0042 79.2355 85.3455 78.8942 85.6489 78.515L87.9811 80.4111L86.9572 81.6815ZM88.8533 79.2924L86.5021 77.3963C86.7865 77.0171 87.052 76.6378 87.3174 76.2397L89.8203 77.9461L88.8533 79.2924ZM90.6166 76.8085L88.1517 75.1399L88.8722 73.9264L91.4699 75.4433L90.6166 76.8085ZM92.1904 74.0971L89.5738 72.5423C89.8013 72.1441 90.0478 71.7459 90.2753 71.3098L92.9488 72.675C92.7023 73.187 92.4559 73.6799 92.1904 74.0971ZM93.5935 71.4046L90.92 70.0584C91.7596 68.3307 92.4879 66.551 93.1005 64.7304L95.9826 65.6595C95.3153 67.638 94.5172 69.5699 93.5935 71.4425V71.4046ZM96.4376 64.2753L93.5745 63.3462C93.7073 62.8912 93.84 62.4361 93.9538 61.9621L96.8927 62.7205C96.76 63.2704 96.6083 63.8013 96.4376 64.3132V64.2753ZM97.253 61.3364L94.314 60.5969C94.4278 60.1229 94.5226 59.6678 94.6174 59.1938L97.5943 59.7626C97.4995 60.3314 97.3857 60.8244 97.253 61.3743V61.3364ZM97.8787 58.3785L94.8829 57.8096C94.8829 57.3356 95.0345 56.8616 95.0914 56.3876L98.1252 56.7858C98.0493 57.3546 97.9735 57.8855 97.8787 58.4164V58.3785ZM98.2958 55.3637L95.2621 54.9845C95.2621 54.5104 95.3758 54.0364 95.3948 53.5624L98.4665 53.752L98.2958 55.3637ZM98.5423 52.3299L95.4896 52.1403C95.4896 51.6663 95.4896 51.1923 95.4896 50.7183H98.5992C98.5802 51.344 98.5802 51.8369 98.5423 52.3679V52.3299Z" fill="#EDE4C6"/>
<path d="M56.942 42.8493L56.2025 43.1717L54.9132 43.7026C54.5655 43.8519 54.1811 43.8938 53.8094 43.8228C53.4377 43.7519 53.0957 43.5713 52.8275 43.3044L48.7509 39.3226L43.6694 34.279C43.5177 33.8429 43.3849 33.4257 43.2901 33.1034C42.9299 31.7382 42.2852 29.5198 42.2852 29.5198C44.4371 27.146 46.8546 25.0274 49.4904 23.2058C49.661 23.092 49.4904 22.2198 49.4904 22.2198L51.0262 21.1011C50.7607 20.191 49.7558 18.0484 50.3626 17.309L49.68 16.6832C49.5472 16.5505 48.8457 16.4557 48.8457 16.8918V18.5983C48.8457 18.5983 42.5507 23.0541 40.6546 24.7985C40.0099 25.3863 38.3224 27.3962 38.3224 27.3962L37.7346 24.7985C37.679 24.5119 37.5765 24.2364 37.4312 23.9832L35.8006 21.0063C35.6377 20.7133 35.3802 20.4843 35.0701 20.3568C34.7601 20.2294 34.4159 20.211 34.0941 20.3048L30.5294 21.2908C30.272 21.3637 30.0447 21.5172 29.8809 21.7287C29.7171 21.9403 29.6254 22.1988 29.6193 22.4663L29.5055 25.538C29.4861 26.0069 29.5792 26.4737 29.7772 26.8992C29.9751 27.3248 30.272 27.6967 30.6432 27.984L34.4354 31.0177L34.3216 35.8907C34.3041 36.4747 34.4484 37.0522 34.7388 37.5592L38.5309 44.1387C38.6497 44.3434 38.723 44.5713 38.7459 44.8068C38.7688 45.0424 38.7408 45.2801 38.6637 45.5039L38.4551 46.1106C38.3194 46.5257 38.036 46.8766 37.6587 47.0966L25.2772 54.5672C25.1325 54.653 25.0126 54.7751 24.9295 54.9214C24.8463 55.0677 24.8028 55.2332 24.8032 55.4015V63.5167L32.2549 57.0321L25.6944 67.4985L34.8336 69.6601C39.1756 62.7773 45.8499 52.3108 48.2389 49.1064L47.6891 44.4989L48.9974 45.0109L52.2966 46.3571C52.6108 46.4933 52.9496 46.5636 53.292 46.5636C53.6345 46.5636 53.9733 46.4933 54.2875 46.3571L55.0649 46.0158L56.4111 45.4091C56.5608 45.3456 56.6945 45.2498 56.8027 45.1285C56.9109 45.0072 56.9908 44.8634 57.0368 44.7075L57.454 43.3234C57.479 43.2534 57.483 43.1776 57.4653 43.1053C57.4477 43.0331 57.4091 42.9677 57.3546 42.9172C57.3001 42.8667 57.2319 42.8333 57.1585 42.8213C57.0851 42.8092 57.0099 42.819 56.942 42.8493V42.8493Z" fill="#EDE4C6"/>
<path opacity="0.7" d="M76.8699 71.3289C76.8699 71.3289 63.3318 56.8428 56.8472 50.9838C56.168 50.3595 55.6508 49.5793 55.3403 48.7105C55.0298 47.8418 54.9353 46.9105 55.0648 45.9971L54.2874 46.3384C53.9732 46.4746 53.6344 46.5449 53.292 46.5449C52.9495 46.5449 52.6107 46.4746 52.2965 46.3384L48.9973 44.9922V46.4143C49.0367 47.3662 48.749 48.303 48.182 49.0688V49.0688C45.7929 52.2732 39.1187 62.7396 34.7766 69.6224C32.5203 73.3198 30.8896 75.9933 30.8896 75.9933C32.2713 77.785 34.0326 79.2484 36.047 80.2785C37.5643 81.1066 39.1581 81.786 40.8062 82.3073C41.6405 82.5728 42.4937 82.8192 43.3849 83.0278C46.0718 83.5987 48.7968 83.9726 51.5381 84.1465L52.2397 86.6114C52.7804 87.9428 52.7804 89.4325 52.2397 90.7639V90.7639C51.6218 91.6043 50.8253 92.2972 49.9075 92.7927C49.8528 92.8149 49.8078 92.8559 49.7809 92.9084C49.7539 92.9609 49.7466 93.0213 49.7604 93.0787C49.7741 93.136 49.808 93.1866 49.8559 93.2211C49.9038 93.2556 49.9624 93.2718 50.0212 93.2667H52.2207C52.6565 93.2801 53.0886 93.1828 53.4765 92.9838C53.8645 92.7849 54.1957 92.4908 54.4391 92.1291L54.7425 91.693C54.7712 91.6373 54.8147 91.5905 54.8682 91.5579C54.9217 91.5253 54.9832 91.508 55.0459 91.508C55.1085 91.508 55.17 91.5253 55.2235 91.5579C55.277 91.5905 55.3205 91.6373 55.3493 91.693L55.8612 93.134L56.3921 92.9254L56.1646 90.6501L56.449 90.1571C56.6272 89.8567 56.6962 89.5039 56.6443 89.1584C56.5925 88.813 56.4231 88.496 56.1646 88.261C55.8261 88.0313 55.5386 87.7343 55.32 87.3884C55.1014 87.0426 54.9565 86.6555 54.8942 86.2512C54.8942 85.6444 54.496 83.6725 54.496 83.6725C54.496 83.6725 69.9492 82.8572 76.8699 71.3289Z" fill="#EDE4C6"/>
<path opacity="0.7" d="M54.913 43.7599L56.2024 43.229L58.7242 38.7542L60.6203 41.2571C61.6703 42.5778 63.1677 43.4682 64.8296 43.7599L65.5122 43.8926C65.6702 43.9254 65.8334 43.9242 65.991 43.8891C66.1485 43.8539 66.2968 43.7857 66.4259 43.6888C66.555 43.592 66.6621 43.4688 66.7399 43.3274C66.8177 43.186 66.8646 43.0296 66.8774 42.8687L67.8254 33.8054C67.8964 33.1546 67.7676 32.4975 67.4559 31.9217C67.1443 31.3459 66.6647 30.8786 66.081 30.5821L63.8436 29.4444C63.3089 29.1745 62.7093 29.0598 62.1127 29.1135C61.5162 29.1671 60.9466 29.3868 60.4686 29.7478L58.0606 31.6439C56.5632 29.1861 55.1899 26.6548 53.946 24.0595C53.6616 23.32 53.491 21.6894 53.1876 20.9309C53.0928 20.6655 52.9221 20.3052 52.7325 19.9071C52.1827 18.7125 51.3863 17.3852 50.6279 17.2146L50.4762 17.3663H50.3814C49.7746 18.0868 50.7796 20.2294 51.045 21.1585C51.6897 23.2631 53.0928 27.7758 53.6806 29.8995C54.049 31.3292 54.1328 32.8174 53.9271 34.2794L50.3624 36.5168C49.8804 36.8262 49.4816 37.2489 49.2006 37.748C48.9197 38.2471 48.7652 38.8074 48.7507 39.3799L52.8273 43.3617C53.0956 43.6286 53.4375 43.8092 53.8092 43.8802C54.1809 43.9511 54.5653 43.9092 54.913 43.7599V43.7599Z" fill="#EDE4C6"/>
</svg>
